<?xml version="1.0" encoding="utf-8"?><!DOCTYPE svg PUBLIC "-//W3C//DTD SVG 1.1//EN" "http://www.w3.org/Graphics/SVG/1.1/DTD/svg11.dtd"><svg width="188.5" height="188.5"><path d=" M 150.11 64.67 C 155.02 63.99 159.86 62.11 164.88 62.83 C 162.35 62.71 160.19 64.27 157.77 64.72 C 159.57 66.33 161.43 67.92 163.26 69.52 C 162.42 73.69 165.95 76.43 166.63 80.25 C 169.45 80.31 168.55 82.63 167.20 83.87 C 167.41 86.62 168.06 89.30 168.41 92.02 C 168.36 100.27 168.42 108.53 168.34 116.78 C 167.26 117.87 166.17 118.97 165.10 120.06 C 166.01 120.99 166.96 121.88 167.94 122.74 C 168.09 124.11 167.44 125.32 167.02 126.57 C 166.63 126.91 165.86 127.58 165.48 127.92 C 165.40 129.76 165.61 131.63 165.32 133.47 C 164.50 134.54 163.27 135.26 162.43 136.30 C 163.06 136.45 164.33 136.75 164.96 136.90 C 164.27 137.42 162.88 138.46 162.19 138.98 C 162.80 139.47 164.01 140.44 164.62 140.93 C 163.21 144.26 162.19 147.77 162.21 151.42 C 159.67 152.85 158.12 156.05 160.87 158.21 C 159.24 158.50 157.72 159.08 156.30 159.93 C 157.26 160.21 159.18 160.75 160.14 161.03 C 158.95 161.53 156.56 162.55 155.36 163.05 C 158.71 165.53 163.00 164.27 166.85 164.73 C 163.21 165.58 159.31 164.81 155.84 166.35 C 144.79 170.81 133.36 174.22 122.08 178.02 C 94.87 187.83 67.16 197.85 38.02 199.41 C 31.09 199.90 24.27 198.44 17.40 197.81 C 17.27 185.55 17.45 173.29 16.82 161.04 C 16.78 147.37 16.81 133.70 16.81 120.03 C 16.62 111.53 17.56 103.05 17.18 94.56 C 28.49 95.46 39.92 95.55 51.14 93.66 C 67.15 91.61 82.38 86.05 97.78 81.51 C 115.05 75.38 132.37 69.31 150.11 64.67 Z" transform="scale(0.736328125, 0.736328125)"></path></svg>
