<?xml version="1.0" encoding="utf-8"?><!DOCTYPE svg PUBLIC "-//W3C//DTD SVG 1.1//EN" "http://www.w3.org/Graphics/SVG/1.1/DTD/svg11.dtd"><svg width="188.5" height="188.5"><path d=" M 117.45 22.88 C 118.81 21.25 120.16 19.61 121.51 17.97 C 123.87 20.49 126.19 23.05 128.47 25.65 C 130.70 23.12 132.96 20.63 135.30 18.21 C 136.58 19.92 137.86 21.63 139.15 23.34 C 136.85 25.72 134.67 28.21 132.64 30.82 C 137.42 38.73 141.38 47.13 144.19 55.94 C 146.60 56.59 149.01 57.26 151.41 57.95 C 157.76 51.11 165.67 46.04 173.95 41.84 C 173.24 38.48 172.47 35.13 171.62 31.80 C 173.64 31.04 175.67 30.28 177.71 29.53 C 178.39 32.91 179.07 36.29 179.71 39.68 C 182.91 38.64 186.13 37.68 189.39 36.84 C 189.64 38.91 189.89 40.97 190.14 43.03 C 186.89 43.89 183.79 45.17 180.74 46.56 C 181.10 55.71 180.12 64.88 178.20 73.83 C 180.01 75.63 181.83 77.42 183.64 79.22 C 192.51 76.72 201.76 76.14 210.93 76.70 C 212.09 73.42 213.15 70.11 214.15 66.78 C 216.20 67.17 218.26 67.57 220.32 67.98 C 219.30 71.23 218.25 74.47 217.17 77.71 C 220.47 78.41 223.75 79.15 227.01 79.99 C 226.15 81.92 225.28 83.85 224.40 85.78 C 221.18 84.97 217.90 84.37 214.60 84.02 C 210.33 92.24 204.83 99.73 198.69 106.64 C 199.28 108.64 199.88 110.64 200.48 112.64 C 209.36 114.87 217.73 118.77 225.23 124.00 C 227.97 121.79 230.58 119.42 233.04 116.90 C 234.65 118.26 236.26 119.63 237.87 121.00 C 235.36 123.37 232.82 125.70 230.20 127.95 C 232.76 130.16 235.26 132.44 237.67 134.81 C 235.93 136.07 234.18 137.33 232.44 138.59 C 230.06 136.34 227.59 134.20 225.02 132.18 C 217.24 136.76 209.10 140.71 200.53 143.58 C 199.89 146.02 199.25 148.46 198.62 150.90 C 205.04 157.41 210.55 164.85 214.29 173.24 C 217.77 172.73 221.21 172.04 224.61 171.13 C 225.35 173.09 226.10 175.05 226.86 177.01 C 223.50 177.82 220.14 178.60 216.76 179.31 C 217.75 182.46 218.68 185.63 219.55 188.82 C 217.49 189.09 215.45 189.35 213.40 189.62 C 212.34 186.53 211.89 182.95 209.54 180.51 C 206.38 179.97 203.16 180.22 199.97 180.09 C 194.28 180.01 188.68 178.87 183.10 177.84 C 181.30 179.61 179.49 181.38 177.69 183.16 C 180.41 192.19 180.97 201.63 180.49 211.01 C 183.78 212.00 187.06 213.01 190.34 214.02 C 189.96 216.11 189.58 218.20 189.19 220.30 C 185.92 219.23 182.67 218.15 179.43 217.01 C 178.69 220.35 177.94 223.68 177.12 227.01 C 175.17 226.06 173.21 225.11 171.26 224.16 C 171.97 221.47 172.90 218.78 172.90 215.97 C 172.96 213.72 170.32 213.12 168.87 211.99 C 162.20 208.39 156.25 203.67 150.64 198.61 C 148.36 199.23 146.07 199.84 143.78 200.44 C 141.12 208.84 137.33 216.82 132.67 224.29 C 134.63 227.00 136.74 229.60 139.10 231.98 C 137.85 233.71 136.60 235.42 135.34 237.14 C 132.97 234.75 130.68 232.26 128.48 229.71 C 126.20 232.30 123.88 234.85 121.52 237.36 C 120.17 235.79 118.82 234.22 117.47 232.65 C 119.87 230.10 122.23 227.51 124.51 224.86 C 119.52 217.33 115.31 209.22 113.24 200.37 C 110.94 199.74 108.63 199.09 106.33 198.44 C 99.41 204.44 91.93 209.72 83.87 214.08 C 84.36 217.32 84.98 220.54 85.74 223.73 C 83.82 224.61 81.91 225.49 79.99 226.37 C 79.16 223.14 78.38 219.89 77.62 216.65 C 74.41 217.68 71.18 218.67 67.96 219.65 C 67.55 217.57 67.13 215.49 66.71 213.41 C 70.05 212.49 73.36 211.48 76.63 210.35 C 76.32 201.17 76.48 191.86 79.33 183.03 C 77.75 181.45 76.17 179.86 74.59 178.27 C 68.44 179.33 62.29 180.62 56.03 180.68 C 53.12 180.79 50.18 180.66 47.30 181.18 C 45.20 183.70 44.68 187.05 43.71 190.09 C 41.62 189.81 39.52 189.53 37.43 189.26 C 38.34 186.06 39.35 182.88 40.42 179.73 C 37.02 179.12 33.63 178.42 30.26 177.62 C 30.98 175.64 31.70 173.66 32.41 171.68 C 35.75 172.46 39.10 173.20 42.45 173.92 C 46.76 165.67 51.95 157.86 58.64 151.35 C 57.91 148.78 57.19 146.22 56.47 143.66 C 47.72 140.89 39.34 137.05 31.56 132.18 C 28.84 134.08 26.27 136.19 23.91 138.53 C 22.16 137.31 20.40 136.09 18.63 134.88 C 21.05 132.48 23.56 130.18 26.16 127.98 C 23.51 125.72 20.92 123.39 18.40 120.99 C 20.05 119.64 21.69 118.30 23.34 116.95 C 25.78 119.39 28.32 121.74 30.90 124.02 C 38.72 118.84 47.23 114.72 56.37 112.45 C 56.89 110.16 57.44 107.89 58.01 105.62 C 53.30 100.34 48.85 94.77 45.46 88.53 C 44.38 86.94 43.64 84.87 41.91 83.88 C 38.79 83.37 35.71 84.62 32.70 85.27 C 31.81 83.36 30.92 81.45 30.05 79.54 C 33.29 78.63 36.54 77.75 39.81 76.94 C 38.75 73.76 37.73 70.56 36.73 67.36 C 38.82 67.02 40.91 66.69 43.00 66.36 C 43.97 69.62 45.00 72.86 46.10 76.08 C 55.28 75.53 64.53 76.20 73.39 78.75 C 75.15 77.02 76.91 75.29 78.67 73.56 C 77.53 67.10 76.40 60.59 76.56 54.00 C 76.39 51.74 76.86 49.27 75.87 47.16 C 73.38 45.04 69.97 44.60 66.95 43.63 C 67.19 41.52 67.44 39.41 67.68 37.30 C 70.95 38.19 74.19 39.18 77.40 40.25 C 78.04 36.85 78.72 33.46 79.41 30.06 C 81.42 30.84 83.43 31.61 85.44 32.38 C 84.63 35.70 83.87 39.03 83.14 42.37 C 91.22 46.48 98.93 51.38 105.28 57.93 C 107.83 57.21 110.38 56.49 112.93 55.78 C 115.19 46.63 119.47 38.21 124.51 30.30 C 122.21 27.78 119.85 25.31 117.45 22.88 M 119.82 54.53 C 125.55 54.41 131.27 54.43 136.99 54.55 C 134.88 48.27 131.91 42.30 127.82 37.06 C 124.84 42.73 122.34 48.64 119.82 54.53 M 83.64 49.67 C 82.71 56.01 83.15 62.42 84.26 68.70 C 88.69 65.71 93.29 62.98 98.05 60.55 C 93.61 56.46 88.57 53.12 83.64 49.67 M 157.99 60.48 C 163.08 62.94 167.96 65.82 172.57 69.10 C 173.87 62.63 174.28 56.01 173.62 49.45 C 168.07 52.63 163.02 56.56 157.99 60.48 M 121.38 67.57 C 100.01 69.91 80.50 84.50 72.31 104.39 C 67.01 116.88 65.97 131.11 69.61 144.19 C 73.92 160.60 85.60 174.82 100.70 182.49 C 112.93 188.88 127.39 190.72 140.87 187.82 C 156.62 184.77 170.85 174.96 179.57 161.52 C 188.05 148.60 191.43 132.34 188.48 117.14 C 185.96 103.52 178.80 90.75 168.11 81.87 C 155.44 70.86 138.05 65.52 121.38 67.57 M 50.25 82.15 C 52.42 88.38 56.28 93.78 60.60 98.69 C 63.02 93.68 65.73 88.81 68.90 84.23 C 62.71 83.33 56.47 82.80 50.25 82.15 M 187.96 84.74 C 191.09 89.43 193.79 94.38 196.30 99.43 C 200.65 94.55 204.37 89.10 206.86 83.03 C 200.53 83.15 194.23 83.84 187.96 84.74 M 37.84 127.54 C 42.85 131.65 48.91 134.17 54.93 136.41 C 54.89 130.73 54.89 125.06 54.91 119.39 C 49.24 122.11 42.93 123.75 37.84 127.54 M 201.73 119.59 C 202.11 125.08 202.14 130.58 201.80 136.08 C 207.95 134.06 213.82 131.23 218.91 127.21 C 213.25 124.53 207.54 121.93 201.73 119.59 M 196.09 157.62 C 193.76 162.74 190.94 167.62 187.73 172.23 C 194.14 173.41 200.69 173.86 207.18 173.03 C 203.80 167.67 199.91 162.66 196.09 157.62 M 50.32 173.77 C 56.82 174.18 63.37 173.96 69.76 172.61 C 66.63 167.90 63.77 163.03 61.17 158.02 C 57.18 163.01 53.30 168.10 50.32 173.77 M 84.64 187.60 C 83.82 193.81 83.04 200.04 83.13 206.32 C 88.97 203.70 94.32 200.12 99.16 195.94 C 94.16 193.46 89.33 190.64 84.64 187.60 M 157.63 196.20 C 162.69 200.47 168.06 204.51 174.39 206.68 C 173.86 200.35 173.20 194.03 172.33 187.74 C 167.55 190.77 162.60 193.51 157.63 196.20 M 120.18 201.60 C 122.56 207.18 124.85 212.82 128.02 218.02 C 131.81 213.07 134.62 207.49 136.68 201.62 C 131.19 202.11 125.67 202.13 120.18 201.60 Z" transform="scale(0.736328125, 0.736328125)"></path></svg>
