<?xml version="1.0" encoding="utf-8"?><!DOCTYPE svg PUBLIC "-//W3C//DTD SVG 1.1//EN" "http://www.w3.org/Graphics/SVG/1.1/DTD/svg11.dtd"><svg width="188.5" height="188.5"><path d=" M 79.93 46.89 C 95.62 37.79 111.43 28.89 127.03 19.63 C 127.52 19.63 128.50 19.63 128.99 19.63 C 153.86 34.31 179.05 48.43 203.93 63.08 C 212.63 68.02 221.39 72.94 229.70 78.49 C 229.55 89.20 229.61 99.90 229.46 110.60 C 228.73 110.48 227.99 110.36 227.26 110.25 C 226.94 110.50 226.29 111.01 225.97 111.26 C 207.22 101.16 189.00 90.05 170.44 79.57 C 156.38 71.22 142.05 63.33 128.00 54.96 C 94.52 74.23 61.29 93.94 27.51 112.68 C 27.47 107.90 27.66 103.09 26.72 98.38 C 27.48 91.85 28.43 84.94 26.27 78.58 C 43.73 67.32 62.05 57.46 79.93 46.89 Z M 124.28 73.28 C 125.74 72.45 127.16 71.03 129.00 71.64 C 162.60 91.49 196.83 110.34 230.15 130.60 C 229.29 133.17 228.61 135.83 228.67 138.56 C 228.69 144.38 228.57 150.20 228.57 156.02 C 228.66 158.24 227.90 160.34 227.13 162.38 C 226.42 162.41 224.99 162.45 224.28 162.48 C 192.08 144.17 160.06 125.52 128.00 106.96 C 94.56 126.19 61.39 145.92 27.62 164.57 C 27.59 161.15 27.39 157.74 26.99 154.34 C 27.22 146.45 28.48 138.28 26.37 130.55 C 43.76 119.24 62.11 109.46 79.95 98.88 C 94.72 90.33 109.55 81.90 124.28 73.28 Z M 23.16 79.98 C 24.14 79.38 25.18 78.92 26.27 78.58 C 28.43 84.94 27.48 91.85 26.72 98.38 C 27.66 103.09 27.47 107.90 27.51 112.68 L 27.51 112.92 C 26.42 113.48 25.34 114.05 24.25 114.62 C 22.66 110.89 23.56 106.74 23.45 102.81 C 23.38 95.20 23.56 87.58 23.16 79.98 Z M 22.76 132.25 C 23.90 131.56 25.11 130.99 26.37 130.55 C 28.48 138.28 27.22 146.45 26.99 154.34 C 27.39 157.74 27.59 161.15 27.62 164.57 L 27.63 164.85 C 26.51 165.42 25.40 166.00 24.28 166.59 C 23.87 165.45 23.39 164.30 23.41 163.07 C 23.26 157.04 23.52 151.01 23.42 144.99 C 23.43 140.73 22.15 136.52 22.76 132.25 Z M 229.70 78.49 C 230.76 78.96 231.81 79.45 232.85 79.98 C 234.52 87.50 232.06 95.02 232.56 102.57 C 232.48 106.43 233.45 110.84 230.55 113.99 C 228.96 113.12 227.37 112.26 225.78 111.41 L 225.97 111.26 C 226.29 111.01 226.94 110.50 227.26 110.25 C 227.99 110.36 228.73 110.48 229.46 110.60 C 229.61 99.90 229.55 89.20 229.70 78.49 Z M 21.76 80.66 C 22.11 80.49 22.81 80.15 23.16 79.98 C 23.56 87.58 23.38 95.20 23.45 102.81 C 23.56 106.74 22.66 110.89 24.25 114.62 C 22.94 115.40 21.60 116.13 20.24 116.83 C 18.70 109.63 19.87 102.20 19.50 94.90 C 19.73 90.12 18.21 84.58 21.76 80.66 Z M 19.69 134.02 C 20.72 133.44 21.75 132.86 22.76 132.25 C 22.15 136.52 23.43 140.73 23.42 144.99 C 23.52 151.01 23.26 157.04 23.41 163.07 C 23.39 164.30 23.87 165.45 24.28 166.59 C 22.98 167.38 21.65 168.12 20.31 168.84 C 19.65 166.27 19.35 163.63 19.44 160.98 C 19.64 151.99 19.23 143.00 19.69 134.02 Z M 232.85 79.98 C 234.01 80.68 235.18 81.36 236.37 82.03 C 236.84 88.38 236.44 94.74 236.52 101.10 C 236.38 106.29 236.92 111.59 235.45 116.64 C 233.79 115.79 232.14 114.94 230.49 114.09 L 230.55 113.99 C 233.45 110.84 232.48 106.43 232.56 102.57 C 232.06 95.02 234.52 87.50 232.85 79.98 Z M 15.18 84.98 C 17.29 83.42 19.36 81.76 21.76 80.66 C 18.21 84.58 19.73 90.12 19.50 94.90 C 19.87 102.20 18.70 109.63 20.24 116.83 L 20.29 117.08 C 18.76 117.90 17.20 118.66 15.63 119.40 C 14.64 113.95 14.21 108.38 14.87 102.87 C 15.90 96.91 13.78 90.92 15.18 84.98 Z M 14.59 137.20 C 16.29 136.13 17.97 135.05 19.69 134.02 C 19.23 143.00 19.64 151.99 19.44 160.98 C 19.35 163.63 19.65 166.27 20.31 168.84 L 20.35 169.05 C 18.75 169.90 17.09 170.67 15.42 171.39 C 15.39 159.99 15.72 148.57 14.59 137.20 Z M 236.37 82.03 C 237.84 82.92 239.26 83.89 240.69 84.85 C 240.37 93.22 240.48 101.59 240.45 109.97 C 240.52 112.97 239.53 115.84 238.55 118.63 C 237.49 118.05 236.44 117.47 235.39 116.89 L 235.45 116.64 C 236.92 111.59 236.38 106.29 236.52 101.10 C 236.44 94.74 236.84 88.38 236.37 82.03 Z M 8.83 88.83 C 10.29 86.69 12.83 85.78 15.18 84.98 C 13.78 90.92 15.90 96.91 14.87 102.87 C 14.21 108.38 14.64 113.95 15.63 119.40 C 13.60 121.75 10.51 122.73 7.49 122.82 C 7.81 113.48 7.50 104.13 7.64 94.79 C 7.78 92.77 7.88 90.65 8.83 88.83 Z M 7.45 145.13 C 7.32 140.99 11.11 138.43 14.59 137.20 C 15.72 148.57 15.39 159.99 15.42 171.39 C 13.45 173.83 10.08 174.66 7.22 175.65 C 8.30 165.50 7.41 155.31 7.45 145.13 Z M 240.69 84.85 C 242.55 85.36 243.95 86.68 245.33 87.95 C 245.44 98.95 246.24 110.10 244.34 121.00 C 242.25 120.64 240.25 119.91 238.55 118.63 C 239.53 115.84 240.52 112.97 240.45 109.97 C 240.48 101.59 240.37 93.22 240.69 84.85 Z M 230.15 130.60 C 231.25 131.09 232.33 131.66 233.37 132.29 C 233.59 139.18 233.82 146.13 232.71 152.97 C 232.04 157.44 233.55 162.29 231.53 166.51 C 229.15 165.10 226.64 163.91 224.28 162.48 C 224.99 162.45 226.42 162.41 227.13 162.38 C 227.90 160.34 228.66 158.24 228.57 156.02 C 228.57 150.20 228.69 144.38 228.67 138.56 C 228.61 135.83 229.29 133.17 230.15 130.60 Z M 233.37 132.29 C 235.29 133.23 237.04 134.46 238.70 135.79 C 236.69 146.75 237.91 157.93 237.14 168.98 C 235.08 168.66 233.24 167.65 231.53 166.51 C 233.55 162.29 232.04 157.44 232.71 152.97 C 233.82 146.13 233.59 139.18 233.37 132.29 Z M 238.70 135.79 C 240.80 136.62 243.83 137.95 243.52 140.68 C 243.49 146.07 243.80 151.52 242.69 156.84 C 241.75 161.76 243.80 167.23 241.24 171.75 C 239.83 171.17 238.44 170.58 237.06 169.94 L 237.14 168.98 C 237.91 157.93 236.69 146.75 238.70 135.79 Z" transform="scale(0.736328125, 0.736328125)"></path></svg>
