<?xml version="1.0" encoding="utf-8"?><!DOCTYPE svg PUBLIC "-//W3C//DTD SVG 1.1//EN" "http://www.w3.org/Graphics/SVG/1.1/DTD/svg11.dtd"><svg width="188.5" height="188.5"><path d=" M 128.22 15.36 C 158.43 32.54 188.44 50.12 218.61 67.39 C 220.72 68.64 222.92 69.79 224.79 71.39 C 225.45 72.82 225.30 74.45 225.39 75.98 C 225.33 106.32 225.38 136.66 225.36 167.00 C 225.32 172.61 225.58 178.24 225.09 183.84 C 204.68 195.89 184.00 207.50 163.55 219.50 C 151.69 226.16 140.09 233.27 128.11 239.71 C 96.43 221.47 64.76 203.19 33.10 184.90 C 31.50 184.24 30.63 182.77 30.82 181.04 C 30.79 147.36 30.83 113.68 30.80 80.01 C 30.75 77.09 31.13 74.20 31.30 71.30 C 63.55 52.56 95.89 33.96 128.22 15.36 Z" transform="scale(0.736328125, 0.736328125)"></path></svg>
