<?xml version="1.0" encoding="utf-8"?><!DOCTYPE svg PUBLIC "-//W3C//DTD SVG 1.1//EN" "http://www.w3.org/Graphics/SVG/1.1/DTD/svg11.dtd"><svg width="188.5" height="188.5"><path d=" M 68.86 35.89 C 69.73 34.44 70.72 33.06 71.62 31.63 C 109.06 31.81 146.51 31.54 183.96 31.77 C 202.11 63.68 220.67 95.35 238.95 127.19 C 239.55 128.12 239.94 129.17 239.10 130.11 C 222.78 158.18 206.63 186.34 190.38 214.45 C 188.15 218.42 185.88 222.37 183.40 226.18 C 171.96 225.16 160.47 226.37 149.01 225.81 C 134.33 225.96 119.64 225.75 104.95 226.04 C 93.74 225.50 82.49 226.26 71.29 225.67 C 54.68 197.27 38.38 168.68 21.88 140.21 C 19.80 136.25 17.07 132.61 15.39 128.45 C 33.27 97.64 51.06 66.75 68.86 35.89 Z" transform="scale(0.736328125, 0.736328125)"></path></svg>
