<?xml version="1.0" encoding="utf-8"?><!DOCTYPE svg PUBLIC "-//W3C//DTD SVG 1.1//EN" "http://www.w3.org/Graphics/SVG/1.1/DTD/svg11.dtd"><svg width="188.5" height="188.5"><path d=" M 110.54 48.46 C 116.64 37.27 122.39 25.88 128.52 14.70 C 134.58 25.79 140.27 37.08 146.33 48.17 C 134.55 46.06 122.28 46.08 110.54 48.46 Z M 153.40 49.91 C 164.22 43.20 174.95 36.34 185.75 29.61 C 185.29 42.24 185.01 54.87 184.36 67.50 C 175.31 59.74 164.74 53.63 153.40 49.91 Z M 71.77 30.24 C 82.52 36.85 93.10 43.74 103.86 50.36 C 92.56 54.37 81.89 60.46 73.00 68.54 C 72.85 55.77 72.03 43.01 71.77 30.24 Z M 119.38 52.44 C 136.47 50.23 154.31 53.98 169.01 63.01 C 181.11 70.20 191.05 80.90 197.51 93.40 C 207.11 111.39 208.87 133.30 202.53 152.66 C 197.30 169.06 186.29 183.50 171.98 193.04 C 156.51 203.41 137.15 207.99 118.70 205.32 C 106.55 203.76 94.86 199.11 84.83 192.11 C 67.92 180.31 56.03 161.47 52.97 141.05 C 50.25 124.25 53.32 106.57 61.60 91.70 C 73.12 70.34 95.34 55.41 119.38 52.44 Z M 29.97 72.29 C 42.63 72.50 55.27 73.23 67.93 73.56 C 60.08 82.61 53.88 93.28 50.27 104.72 C 43.65 93.82 36.65 83.16 29.97 72.29 Z M 189.58 72.72 C 202.30 72.44 215.00 71.65 227.72 71.40 C 221.23 82.24 214.23 92.77 207.70 103.58 C 203.70 92.30 197.61 81.62 189.58 72.72 Z M 14.66 128.52 C 25.86 122.42 37.22 116.61 48.45 110.58 C 46.12 122.31 45.96 134.61 48.28 146.35 C 37.12 140.32 25.84 134.52 14.66 128.52 Z M 209.56 110.59 C 220.75 116.62 232.09 122.36 243.24 128.48 C 232.19 134.65 220.87 140.31 209.75 146.35 C 211.86 134.59 211.91 122.31 209.56 110.59 Z M 29.86 185.63 C 36.40 174.73 43.46 164.14 50.05 153.27 C 53.89 164.57 59.88 175.27 67.74 184.28 C 55.12 184.75 42.49 185.35 29.86 185.63 Z M 189.69 185.15 C 197.76 176.26 203.80 165.56 207.81 154.27 C 214.32 165.10 221.37 175.58 227.85 186.43 C 215.12 186.30 202.42 185.34 189.69 185.15 Z M 72.87 189.34 C 76.16 192.36 79.61 195.26 83.47 197.55 C 89.92 201.35 96.36 205.36 103.61 207.46 C 92.89 214.13 82.28 220.99 71.49 227.55 C 71.77 214.81 72.47 202.08 72.87 189.34 Z M 153.64 207.97 C 164.98 204.13 175.69 198.09 184.72 190.22 C 185.21 202.87 185.42 215.54 186.13 228.18 C 175.14 221.71 164.53 214.61 153.64 207.97 Z M 110.52 209.53 C 122.25 211.97 134.51 211.76 146.31 209.85 C 140.28 220.93 134.67 232.24 128.49 243.23 C 122.31 232.10 116.68 220.67 110.52 209.53 Z" transform="scale(0.736328125, 0.736328125)"></path></svg>
