<?xml version="1.0" encoding="utf-8"?><!DOCTYPE svg PUBLIC "-//W3C//DTD SVG 1.1//EN" "http://www.w3.org/Graphics/SVG/1.1/DTD/svg11.dtd"><svg width="188.5" height="188.5"><path d=" M 69.43 12.67 C 76.27 12.07 83.14 12.45 90.00 12.39 C 120.69 12.35 151.37 12.45 182.06 12.33 C 184.40 12.32 186.73 12.66 189.05 12.96 C 190.07 18.92 189.56 24.98 189.62 31.00 C 189.61 92.00 189.62 153.00 189.61 214.00 C 189.34 222.99 190.29 232.03 189.10 240.97 C 187.10 241.31 185.10 241.69 183.07 241.69 C 151.38 241.53 119.69 241.66 88.00 241.61 C 81.63 241.54 75.22 242.12 68.91 241.04 C 68.07 234.39 68.53 227.68 68.46 221.00 C 68.44 156.67 68.49 92.33 68.44 28.00 C 68.60 22.90 67.70 17.59 69.43 12.67 Z" transform="scale(0.736328125, 0.736328125)"></path></svg>
