<?xml version="1.0" encoding="utf-8"?><!DOCTYPE svg PUBLIC "-//W3C//DTD SVG 1.1//EN" "http://www.w3.org/Graphics/SVG/1.1/DTD/svg11.dtd"><svg width="188.5" height="188.5"><path d=" M 14.07 14.07 C 52.11 13.73 90.15 13.98 128.18 13.95 C 128.44 49.98 128.15 86.02 128.33 122.05 C 128.26 123.95 128.65 125.99 127.77 127.77 C 125.66 128.80 123.23 128.23 120.97 128.33 C 85.30 128.20 49.62 128.44 13.95 128.21 C 13.98 90.16 13.73 52.11 14.07 14.07 Z M 128.65 128.65 C 128.90 128.54 129.42 128.33 129.68 128.23 C 167.37 128.46 205.08 128.10 242.77 128.41 C 242.48 166.50 242.64 204.60 242.69 242.69 C 204.55 242.53 166.40 242.69 128.25 242.61 C 128.29 206.75 128.29 170.89 128.25 135.03 C 128.44 132.93 127.64 130.59 128.65 128.65 Z" transform="scale(0.736328125, 0.736328125)"></path></svg>
