<?xml version="1.0" encoding="utf-8"?><!DOCTYPE svg PUBLIC "-//W3C//DTD SVG 1.1//EN" "http://www.w3.org/Graphics/SVG/1.1/DTD/svg11.dtd"><svg width="188.5" height="188.5"><path d=" M 119.27 28.27 C 143.60 26.01 168.65 33.07 188.17 47.78 C 206.93 61.70 220.40 82.45 225.66 105.19 C 229.96 124.26 228.77 144.59 221.91 162.91 C 213.81 184.62 197.91 203.37 177.69 214.73 C 162.11 223.72 144.02 228.27 126.04 227.76 C 100.33 227.33 74.89 216.45 57.00 197.96 C 41.06 182.04 31.08 160.45 28.78 138.08 C 26.74 118.50 30.63 98.35 39.93 80.98 C 55.21 51.50 86.17 30.92 119.27 28.27 Z" transform="scale(0.736328125, 0.736328125)"></path></svg>
