<?xml version="1.0" encoding="utf-8"?><!DOCTYPE svg PUBLIC "-//W3C//DTD SVG 1.1//EN" "http://www.w3.org/Graphics/SVG/1.1/DTD/svg11.dtd"><svg width="188.5" height="188.5"><path d=" M 116.71 16.78 C 124.35 16.55 132.14 15.81 139.69 17.39 C 141.84 26.18 143.81 35.02 146.13 43.78 C 156.80 45.93 166.97 50.18 176.16 56.00 C 183.56 51.59 190.81 46.95 198.23 42.56 C 204.45 47.75 209.94 53.73 214.97 60.06 C 210.29 67.33 206.09 74.89 201.37 82.12 C 206.46 90.81 210.03 100.33 212.16 110.16 C 220.39 112.08 228.62 114.00 236.80 116.10 C 237.84 123.98 237.85 132.02 236.80 139.91 C 228.61 142.00 220.39 143.93 212.16 145.84 C 210.03 155.67 206.46 165.19 201.37 173.88 C 206.09 181.11 210.29 188.67 214.97 195.94 C 209.94 202.27 204.45 208.25 198.24 213.44 C 190.82 209.05 183.55 204.42 176.16 200.00 C 166.98 205.82 156.79 210.06 146.12 212.23 C 143.82 220.99 141.80 229.83 139.71 238.64 C 132.13 239.98 124.38 239.92 116.75 239.08 C 114.30 230.43 112.42 221.64 110.30 212.91 C 110.17 211.24 108.11 211.36 106.96 210.88 C 97.60 208.80 88.81 204.72 80.68 199.70 C 72.66 204.36 64.87 209.38 56.89 214.11 C 51.17 209.36 45.89 204.04 41.22 198.25 C 46.18 190.29 51.00 182.25 55.87 174.24 C 50.39 165.57 46.71 155.85 44.60 145.83 C 35.56 143.56 26.46 141.56 17.44 139.22 C 16.38 131.82 16.49 124.30 17.36 116.90 C 26.36 114.35 35.54 112.50 44.60 110.17 C 46.72 100.16 50.37 90.44 55.87 81.78 C 51.01 73.76 46.18 65.72 41.22 57.76 C 45.88 51.96 51.17 46.65 56.89 41.89 C 64.87 46.62 72.67 51.65 80.69 56.30 C 88.81 51.27 97.60 47.20 106.96 45.12 C 108.09 44.64 110.12 44.78 110.29 43.14 C 112.39 34.34 114.40 25.52 116.71 16.78 M 121.37 94.43 C 109.19 96.83 98.70 106.25 95.15 118.18 C 91.49 128.80 94.46 140.90 101.40 149.52 C 110.05 160.21 125.40 165.17 138.49 160.40 C 154.83 155.36 165.19 136.65 160.83 120.11 C 157.18 102.88 138.66 90.64 121.37 94.43 Z" transform="scale(0.736328125, 0.736328125)"></path></svg>
