<?xml version="1.0" encoding="utf-8"?><!DOCTYPE svg PUBLIC "-//W3C//DTD SVG 1.1//EN" "http://www.w3.org/Graphics/SVG/1.1/DTD/svg11.dtd"><svg width="188.5" height="188.5"><path d=" M 132.23 22.06 C 133.28 18.73 134.23 15.38 135.17 12.01 C 135.55 12.64 136.31 13.88 136.69 14.50 C 138.58 14.48 140.47 14.47 142.37 14.45 C 142.84 14.91 143.79 15.84 144.26 16.30 C 144.73 15.51 145.67 13.93 146.14 13.14 C 144.23 18.50 145.02 24.08 146.65 29.39 C 148.46 29.41 150.28 29.44 152.10 29.47 C 154.59 25.86 157.28 22.40 159.83 18.84 C 162.41 19.89 165.00 20.93 167.59 21.98 C 167.37 26.53 166.56 31.01 165.52 35.44 C 167.00 35.45 168.49 35.46 169.98 35.47 C 172.63 32.76 175.28 30.06 177.95 27.38 C 180.48 28.11 182.99 28.89 185.48 29.72 C 185.46 31.18 185.45 32.63 185.44 34.09 C 185.04 34.58 184.25 35.55 183.85 36.04 C 183.84 36.73 183.81 38.10 183.79 38.79 C 183.43 39.22 182.72 40.10 182.36 40.53 C 182.27 41.73 182.19 42.92 182.12 44.11 C 183.35 44.77 184.60 45.40 185.92 45.88 C 189.12 44.03 191.42 41.04 193.99 38.44 C 195.32 38.49 196.65 38.53 197.98 38.58 C 199.78 39.88 201.63 41.11 203.52 42.26 C 203.49 42.86 203.42 44.07 203.39 44.68 C 201.15 47.15 199.13 49.79 197.29 52.56 C 197.24 53.74 197.19 54.91 197.14 56.08 C 198.29 56.71 199.41 57.43 200.65 57.91 C 204.58 56.07 207.87 52.93 212.15 51.83 C 214.73 52.93 216.61 55.10 218.64 56.95 C 218.58 57.61 218.45 58.93 218.39 59.59 C 217.13 61.22 215.96 62.92 214.90 64.68 C 214.06 65.01 213.22 65.35 212.39 65.69 C 212.41 67.64 212.44 69.60 212.47 71.55 C 216.82 71.59 221.17 71.58 225.52 71.57 C 226.83 74.53 228.17 77.49 229.46 80.47 C 226.40 82.34 223.68 84.69 221.24 87.31 C 222.16 89.57 222.98 91.86 223.72 94.19 C 227.65 94.05 231.66 94.15 235.39 95.55 C 235.30 96.45 235.13 98.25 235.05 99.16 C 235.47 99.60 236.31 100.50 236.73 100.95 C 236.61 101.59 236.37 102.89 236.25 103.53 C 232.66 105.17 229.32 107.29 226.10 109.56 C 226.12 111.97 226.14 114.37 226.16 116.78 C 230.58 116.39 235.08 116.15 239.41 117.33 C 239.23 121.65 239.21 125.98 239.37 130.30 C 234.92 131.44 230.37 132.12 225.79 132.48 C 225.22 134.74 223.61 137.30 225.33 139.46 C 228.30 143.70 234.03 144.04 238.49 145.87 C 237.72 149.45 236.89 153.02 236.10 156.60 C 231.98 156.74 227.85 156.79 223.72 156.78 C 222.37 158.74 221.05 160.73 219.75 162.72 C 222.85 164.75 226.35 166.52 228.53 169.63 C 229.89 171.31 228.19 173.27 227.77 175.00 C 227.70 175.72 227.56 177.15 227.49 177.87 C 222.65 177.89 217.82 177.49 213.14 176.24 C 212.32 177.97 211.47 179.68 210.60 181.38 C 212.44 184.48 214.63 187.36 217.27 189.82 C 217.01 194.01 215.24 199.09 210.92 200.49 C 206.07 199.40 201.95 196.38 197.58 194.15 C 196.96 195.73 196.00 197.25 195.92 198.98 C 197.18 203.05 200.09 206.30 202.31 209.87 C 199.58 211.85 197.02 214.13 193.96 215.63 C 190.53 214.22 187.67 211.79 184.73 209.58 C 182.98 209.55 181.23 209.51 179.48 209.49 C 179.40 210.81 179.32 212.13 179.25 213.45 C 179.63 213.90 180.40 214.80 180.79 215.25 C 180.79 215.91 180.79 217.22 180.79 217.88 C 181.18 218.38 181.96 219.37 182.35 219.87 C 182.38 221.36 182.40 222.86 182.43 224.37 C 179.63 225.94 176.81 227.50 174.01 229.07 C 171.51 224.87 168.85 220.76 165.89 216.86 C 164.17 217.85 162.45 218.83 160.73 219.81 C 161.32 220.78 161.92 221.75 162.52 222.72 C 162.88 226.25 163.57 229.73 164.48 233.15 C 161.36 234.01 158.26 235.30 154.97 235.15 C 151.57 232.06 151.01 227.10 149.39 223.01 C 148.80 223.06 147.64 223.15 147.05 223.20 C 145.79 224.39 144.52 225.59 143.26 226.79 C 143.47 231.10 143.51 235.49 142.11 239.64 C 139.25 239.60 136.39 239.58 133.53 239.54 C 132.99 238.83 132.45 238.12 131.92 237.42 C 131.61 233.09 130.62 228.86 129.95 224.59 C 128.01 225.37 126.03 226.04 123.99 226.55 C 122.53 230.19 121.22 233.91 120.30 237.74 C 119.70 238.37 119.10 239.01 118.50 239.65 C 115.37 239.61 112.25 239.58 109.12 239.55 C 109.22 234.57 109.23 229.60 109.20 224.63 C 107.75 224.59 106.31 224.56 104.87 224.53 C 103.14 226.97 101.41 229.40 99.61 231.79 C 99.61 232.62 99.63 234.30 99.64 235.13 C 98.92 235.17 97.47 235.23 96.74 235.26 C 95.90 234.68 95.05 234.09 94.21 233.51 C 92.65 233.49 91.10 233.48 89.55 233.48 C 89.60 230.60 89.66 227.73 89.71 224.86 C 90.43 223.12 91.13 221.38 91.83 219.64 C 90.28 218.65 88.73 217.65 87.19 216.65 C 84.11 219.85 80.96 223.00 77.85 226.18 C 77.18 226.18 75.85 226.17 75.19 226.17 C 73.56 224.57 71.93 222.98 70.28 221.41 C 71.85 217.41 73.18 213.32 74.70 209.30 C 73.13 208.87 71.58 208.35 69.97 208.12 C 66.38 209.58 63.70 212.67 60.06 214.06 C 57.45 213.12 55.21 211.44 52.82 210.08 C 55.18 205.67 59.11 201.39 57.78 195.97 C 53.20 196.79 48.91 198.69 44.54 200.23 C 42.37 197.91 40.18 195.60 37.99 193.30 C 40.53 189.54 44.23 186.34 45.87 182.09 C 44.67 180.41 43.15 179.02 41.69 177.58 C 38.45 178.95 35.15 180.15 31.80 181.23 C 30.18 177.88 28.21 174.72 25.94 171.77 C 29.01 169.13 32.30 166.77 35.48 164.26 C 35.46 162.58 35.44 160.90 35.42 159.21 C 34.62 158.29 33.82 157.37 33.03 156.45 C 32.56 156.93 31.64 157.89 31.18 158.37 C 27.71 158.35 24.23 158.33 20.76 158.31 C 19.86 154.86 18.79 151.46 17.53 148.13 C 21.68 146.25 25.71 144.12 29.58 141.73 C 29.51 139.33 29.45 136.93 29.39 134.53 C 24.86 134.37 20.36 133.75 15.98 132.59 C 16.00 128.88 16.00 125.17 15.99 121.47 C 19.96 120.94 23.85 119.92 27.82 119.40 C 27.81 116.54 27.80 113.69 27.79 110.84 C 24.17 109.26 20.63 107.48 17.27 105.40 C 17.33 102.77 17.38 100.13 17.40 97.50 C 18.16 96.87 18.91 96.23 19.67 95.60 C 23.76 95.63 27.86 95.67 31.95 95.72 C 32.67 93.89 33.49 92.08 33.91 90.15 C 31.09 86.92 27.02 85.24 23.43 83.05 C 25.29 79.71 27.01 76.28 28.64 72.82 C 30.13 73.27 31.61 73.75 33.09 74.23 C 35.47 74.83 37.85 75.44 40.21 76.13 C 41.64 74.14 43.10 72.18 44.59 70.24 C 43.78 69.84 42.97 69.45 42.16 69.06 C 40.30 66.68 38.12 64.49 36.79 61.75 C 37.31 58.18 40.13 55.64 42.45 53.12 C 45.26 55.72 48.64 57.62 52.44 58.31 C 53.77 56.94 55.11 55.59 56.46 54.24 C 54.03 51.08 52.06 47.60 50.13 44.13 C 52.61 42.40 54.98 40.52 57.28 38.56 C 57.87 38.57 59.06 38.58 59.65 38.58 C 63.23 41.25 66.94 43.72 70.70 46.10 C 72.12 44.72 73.53 43.34 74.96 41.97 C 74.36 40.83 73.75 39.70 73.13 38.57 C 73.05 37.45 72.95 36.32 72.86 35.19 C 72.29 33.49 71.64 31.79 71.45 29.99 C 73.88 27.55 77.44 25.75 80.95 26.64 C 83.49 29.16 85.10 32.40 86.92 35.44 C 88.80 35.44 90.67 35.44 92.55 35.44 C 92.59 33.52 92.62 31.59 92.66 29.67 C 92.18 29.27 91.20 28.46 90.72 28.06 C 90.89 25.54 90.75 22.94 91.51 20.50 C 93.71 17.97 97.34 17.70 100.41 16.99 C 102.00 20.46 103.55 23.95 104.70 27.59 C 105.33 28.25 105.97 28.91 106.60 29.57 C 107.83 29.50 109.06 29.44 110.30 29.37 C 111.29 25.01 112.25 20.58 111.62 16.08 C 112.29 14.87 112.95 13.65 113.61 12.43 C 114.22 13.13 114.83 13.83 115.44 14.53 C 117.68 14.56 119.93 14.58 122.17 14.59 C 123.84 18.82 125.07 23.22 125.57 27.75 C 127.45 27.79 129.33 27.83 131.22 27.87 C 131.77 26.57 132.32 25.26 132.88 23.96 C 132.72 23.49 132.39 22.54 132.23 22.06 M 118.26 65.25 C 96.70 68.10 77.39 83.24 69.42 103.47 C 62.09 121.85 63.65 143.89 74.38 160.64 C 81.65 172.32 92.94 181.37 105.83 186.12 C 121.84 191.81 140.20 191.07 155.40 183.32 C 166.77 177.66 176.43 168.51 182.41 157.28 C 191.52 140.86 192.47 120.23 185.16 102.96 C 179.30 88.60 167.76 76.71 153.68 70.26 C 142.68 65.11 130.24 63.79 118.26 65.25 Z M 156.52 17.62 C 158.31 18.33 156.58 22.10 154.84 21.28 C 154.08 19.98 155.15 18.01 156.52 17.62 Z" transform="scale(0.736328125, 0.736328125)"></path></svg>
