<?xml version="1.0" encoding="utf-8"?><!DOCTYPE svg PUBLIC "-//W3C//DTD SVG 1.1//EN" "http://www.w3.org/Graphics/SVG/1.1/DTD/svg11.dtd"><svg width="188.5" height="188.5"><path d=" M 62.07 21.98 C 82.54 18.72 103.24 16.91 123.96 16.18 C 140.66 16.04 157.33 17.57 173.93 19.31 C 180.20 20.33 186.60 20.60 192.80 22.04 C 193.31 30.10 195.10 38.10 198.55 45.42 C 199.81 47.74 201.95 49.43 204.24 50.67 C 209.41 53.43 215.09 55.08 220.82 56.25 C 221.19 71.51 220.00 86.73 219.14 101.95 C 217.48 120.96 216.30 140.38 209.52 158.41 C 200.21 183.83 182.45 205.84 160.37 221.34 C 150.24 228.73 139.01 234.38 127.62 239.54 C 103.67 229.37 81.41 214.26 65.30 193.61 C 58.71 185.23 53.05 176.07 48.78 166.29 C 44.55 154.75 41.16 142.87 39.19 130.73 C 35.87 106.00 34.47 81.06 34.12 56.13 C 41.11 54.79 48.75 53.15 53.67 47.57 C 60.04 40.73 61.72 30.99 62.07 21.98 Z" transform="scale(0.736328125, 0.736328125)"></path></svg>
